<svg xmlns="http://www.w3.org/2000/svg" viewBox="0 0 480 300" role="img" aria-label="Bull and bear stock market illustration">
  <rect width="480" height="300" fill="#ffffff"/>
  <path d="M42 152 L142 74 L207 128 L311 39" fill="none" stroke="#070c27" stroke-width="10" stroke-linecap="round" stroke-linejoin="round"/>
  <path d="M286 39 L313 38 L309 65" fill="none" stroke="#070c27" stroke-width="10" stroke-linecap="round" stroke-linejoin="round"/>
  <path d="M49 220 C83 160 139 134 207 146 C244 153 278 175 305 216 C245 211 204 220 166 237 C119 258 77 252 49 220 Z" fill="#1f5b96"/>
  <path d="M99 168 C112 125 156 100 207 124 C233 98 265 88 310 96 C276 117 258 145 258 179 C210 165 157 165 104 186 C82 176 59 159 41 137 C69 143 88 153 99 168 Z" fill="#245f9d"/>
  <path d="M179 186 C127 209 84 214 44 207" fill="none" stroke="#092954" stroke-width="8" stroke-linecap="round"/>
  <circle cx="211" cy="166" r="7" fill="#071126"/>
  <path d="M253 166 C282 152 316 158 337 182" fill="none" stroke="#1f5b96" stroke-width="10" stroke-linecap="round"/>
  <path d="M70 223 L63 262 M137 228 L129 265 M228 213 L237 265 M285 216 L297 265" fill="none" stroke="#1f5b96" stroke-width="10" stroke-linecap="round"/>
  <path d="M320 216 C337 162 373 127 422 132 C459 136 483 169 472 220 C440 214 416 222 389 236 C360 251 335 244 320 216 Z" fill="#bd1736"/>
  <path d="M349 137 C365 98 402 80 446 95 C421 113 408 139 408 173 C390 153 370 142 349 137 Z" fill="#c91d3b"/>
  <path d="M360 96 C355 77 370 63 392 61 C389 81 379 94 360 96 Z" fill="#bd1736"/>
  <path d="M436 95 C456 72 488 70 509 82 C483 93 464 111 450 137" fill="#bd1736"/>
  <circle cx="407" cy="146" r="7" fill="#430914"/>
  <path d="M325 216 C361 226 397 215 428 195" fill="none" stroke="#8b1328" stroke-width="8" stroke-linecap="round"/>
  <path d="M342 218 L335 263 M390 236 L386 266 M442 215 L449 263" fill="none" stroke="#bd1736" stroke-width="10" stroke-linecap="round"/>
  <path d="M306 226 L463 70" fill="none" stroke="#8b1328" stroke-width="8" stroke-linecap="round"/>
</svg>
